<?xml version="1.0" encoding="utf-8"?>
<svg version="1.1" xmlns:xlink="http://www.w3.org/1999/xlink" width="21px" height="21px" xmlns="http://www.w3.org/2000/svg">
  <g transform="matrix(1 0 0 1 20 0 )">
    <path d="M -9.5 0  C -3.62 0  1 4.62  1 10.5  C 1 16.38  -3.62 21  -9.5 21  C -15.38 21  -20 16.38  -20 10.5  C -20 4.62  -15.38 0  -9.5 0  Z " fill-rule="nonzero" fill="#d7d7d7" stroke="none" />
    <path d="M -9.5 0.5  C -3.9 0.5  0.5 4.9  0.5 10.5  C 0.5 16.1  -3.9 20.5  -9.5 20.5  C -15.1 20.5  -19.5 16.1  -19.5 10.5  C -19.5 4.9  -15.1 0.5  -9.5 0.5  Z " stroke-width="1" stroke="#d7d7d7" fill="none" />
  </g>
</svg>