<?xml version="1.0" encoding="utf-8"?>
<svg version="1.1" xmlns:xlink="http://www.w3.org/1999/xlink" width="21px" height="21px" xmlns="http://www.w3.org/2000/svg">
  <g transform="matrix(1 0 0 1 -21 0 )">
    <path d="M 31.5 0  C 37.38 0  42 4.62  42 10.5  C 42 16.38  37.38 21  31.5 21  C 25.62 21  21 16.38  21 10.5  C 21 4.62  25.62 0  31.5 0  Z " fill-rule="nonzero" fill="#ffffff" stroke="none" fill-opacity="0" />
    <path d="M 31.5 0.5  C 37.1 0.5  41.5 4.9  41.5 10.5  C 41.5 16.1  37.1 20.5  31.5 20.5  C 25.9 20.5  21.5 16.1  21.5 10.5  C 21.5 4.9  25.9 0.5  31.5 0.5  Z " stroke-width="1" stroke="#d7d7d7" fill="none" />
  </g>
</svg>