<?xml version="1.0" encoding="utf-8"?>
<svg version="1.1" xmlns:xlink="http://www.w3.org/1999/xlink" width="21px" height="21px" xmlns="http://www.w3.org/2000/svg">
  <g transform="matrix(1 0 0 1 -62 0 )">
    <path d="M 72.5 0  C 78.38 0  83 4.62  83 10.5  C 83 16.38  78.38 21  72.5 21  C 66.62 21  62 16.38  62 10.5  C 62 4.62  66.62 0  72.5 0  Z " fill-rule="nonzero" fill="#d7d7d7" stroke="none" fill-opacity="0" />
    <path d="M 72.5 0.5  C 78.1 0.5  82.5 4.9  82.5 10.5  C 82.5 16.1  78.1 20.5  72.5 20.5  C 66.9 20.5  62.5 16.1  62.5 10.5  C 62.5 4.9  66.9 0.5  72.5 0.5  Z " stroke-width="1" stroke="#d7d7d7" fill="none" />
  </g>
</svg>